<svg width="195" height="101" viewBox="0 0 195 101" fill="none" xmlns="http://www.w3.org/2000/svg">
<rect width="195" height="38" rx="5" fill="white"/>
<path d="M52.596 25C52.404 25 52.252 24.948 52.14 24.844C52.036 24.732 51.984 24.584 51.984 24.4V17.14C51.984 16.956 52.036 16.812 52.14 16.708C52.252 16.596 52.404 16.54 52.596 16.54H57.012C57.196 16.54 57.336 16.584 57.432 16.672C57.536 16.76 57.588 16.884 57.588 17.044C57.588 17.204 57.536 17.328 57.432 17.416C57.336 17.496 57.196 17.536 57.012 17.536H53.196V20.2H56.772C56.956 20.2 57.096 20.244 57.192 20.332C57.296 20.42 57.348 20.544 57.348 20.704C57.348 20.864 57.296 20.988 57.192 21.076C57.096 21.164 56.956 21.208 56.772 21.208H53.196V24.004H57.012C57.396 24.004 57.588 24.168 57.588 24.496C57.588 24.656 57.536 24.78 57.432 24.868C57.336 24.956 57.196 25 57.012 25H52.596ZM65.3635 16.48C65.5395 16.48 65.6795 16.54 65.7835 16.66C65.8955 16.772 65.9515 16.92 65.9515 17.104V24.436C65.9515 24.62 65.8955 24.772 65.7835 24.892C65.6715 25.004 65.5275 25.06 65.3515 25.06C65.1435 25.06 64.9835 24.98 64.8715 24.82L60.1675 18.616V24.436C60.1675 24.62 60.1115 24.772 59.9995 24.892C59.8955 25.004 59.7555 25.06 59.5795 25.06C59.4035 25.06 59.2635 25.004 59.1595 24.892C59.0555 24.78 59.0035 24.628 59.0035 24.436V17.104C59.0035 16.92 59.0595 16.772 59.1715 16.66C59.2835 16.54 59.4275 16.48 59.6035 16.48C59.8115 16.48 59.9715 16.56 60.0835 16.72L64.7875 22.936V17.104C64.7875 16.92 64.8395 16.772 64.9435 16.66C65.0475 16.54 65.1875 16.48 65.3635 16.48ZM70.5615 25.06C70.3775 25.06 70.2255 25.004 70.1055 24.892C69.9935 24.772 69.9375 24.62 69.9375 24.436V17.572H67.5375C67.1535 17.572 66.9615 17.4 66.9615 17.056C66.9615 16.888 67.0095 16.76 67.1055 16.672C67.2095 16.584 67.3535 16.54 67.5375 16.54H73.5855C73.7695 16.54 73.9095 16.584 74.0055 16.672C74.1095 16.76 74.1615 16.888 74.1615 17.056C74.1615 17.4 73.9695 17.572 73.5855 17.572H71.1855V24.436C71.1855 24.62 71.1295 24.772 71.0175 24.892C70.9055 25.004 70.7535 25.06 70.5615 25.06ZM81.7871 24.232C81.8591 24.336 81.8951 24.448 81.8951 24.568C81.8951 24.712 81.8351 24.836 81.7151 24.94C81.6031 25.036 81.4711 25.084 81.3191 25.084C81.0951 25.084 80.9151 24.984 80.7791 24.784L79.1711 22.288C78.9871 22 78.7911 21.8 78.5831 21.688C78.3751 21.568 78.1031 21.508 77.7671 21.508H76.4111V24.436C76.4111 24.628 76.3551 24.78 76.2431 24.892C76.1391 25.004 75.9911 25.06 75.7991 25.06C75.6151 25.06 75.4671 25.004 75.3551 24.892C75.2431 24.78 75.1871 24.628 75.1871 24.436V17.14C75.1871 16.956 75.2391 16.812 75.3431 16.708C75.4551 16.596 75.6071 16.54 75.7991 16.54H78.7871C79.7231 16.54 80.4351 16.748 80.9231 17.164C81.4191 17.58 81.6671 18.188 81.6671 18.988C81.6671 19.652 81.4791 20.192 81.1031 20.608C80.7271 21.016 80.1911 21.276 79.4951 21.388C79.7031 21.444 79.8911 21.544 80.0591 21.688C80.2271 21.832 80.3911 22.032 80.5511 22.288L81.7871 24.232ZM78.6431 20.512C79.2671 20.512 79.7271 20.392 80.0231 20.152C80.3271 19.904 80.4791 19.524 80.4791 19.012C80.4791 18.5 80.3311 18.128 80.0351 17.896C79.7391 17.656 79.2751 17.536 78.6431 17.536H76.3991V20.512H78.6431ZM84.0843 25C83.8923 25 83.7403 24.948 83.6283 24.844C83.5243 24.732 83.4723 24.584 83.4723 24.4V17.14C83.4723 16.956 83.5243 16.812 83.6283 16.708C83.7403 16.596 83.8923 16.54 84.0843 16.54H88.5003C88.6843 16.54 88.8243 16.584 88.9203 16.672C89.0243 16.76 89.0763 16.884 89.0763 17.044C89.0763 17.204 89.0243 17.328 88.9203 17.416C88.8243 17.496 88.6843 17.536 88.5003 17.536H84.6843V20.2H88.2603C88.4443 20.2 88.5843 20.244 88.6803 20.332C88.7843 20.42 88.8363 20.544 88.8363 20.704C88.8363 20.864 88.7843 20.988 88.6803 21.076C88.5843 21.164 88.4443 21.208 88.2603 21.208H84.6843V24.004H88.5003C88.8843 24.004 89.0763 24.168 89.0763 24.496C89.0763 24.656 89.0243 24.78 88.9203 24.868C88.8243 24.956 88.6843 25 88.5003 25H84.0843ZM94.2679 25C94.0759 25 93.9239 24.948 93.8119 24.844C93.7079 24.732 93.6559 24.584 93.6559 24.4V17.14C93.6559 16.956 93.7079 16.812 93.8119 16.708C93.9239 16.596 94.0759 16.54 94.2679 16.54H98.6839C98.8679 16.54 99.0079 16.584 99.1039 16.672C99.2079 16.76 99.2599 16.884 99.2599 17.044C99.2599 17.204 99.2079 17.328 99.1039 17.416C99.0079 17.496 98.8679 17.536 98.6839 17.536H94.8679V20.2H98.4439C98.6279 20.2 98.7679 20.244 98.8639 20.332C98.9679 20.42 99.0199 20.544 99.0199 20.704C99.0199 20.864 98.9679 20.988 98.8639 21.076C98.7679 21.164 98.6279 21.208 98.4439 21.208H94.8679V24.004H98.6839C99.0679 24.004 99.2599 24.168 99.2599 24.496C99.2599 24.656 99.2079 24.78 99.1039 24.868C99.0079 24.956 98.8679 25 98.6839 25H94.2679ZM108.187 16.48C108.363 16.48 108.507 16.54 108.619 16.66C108.731 16.772 108.787 16.92 108.787 17.104V24.472C108.787 24.656 108.735 24.8 108.631 24.904C108.535 25.008 108.399 25.06 108.223 25.06C108.055 25.06 107.923 25.008 107.827 24.904C107.731 24.8 107.683 24.656 107.683 24.472V18.892L105.331 23.368C105.179 23.648 104.983 23.788 104.743 23.788C104.503 23.788 104.307 23.648 104.155 23.368L101.791 18.94V24.472C101.791 24.656 101.743 24.8 101.647 24.904C101.551 25.008 101.415 25.06 101.239 25.06C101.071 25.06 100.935 25.008 100.831 24.904C100.735 24.792 100.687 24.648 100.687 24.472V17.104C100.687 16.92 100.743 16.772 100.855 16.66C100.967 16.54 101.111 16.48 101.287 16.48C101.535 16.48 101.735 16.624 101.887 16.912L104.755 22.396L107.599 16.912C107.751 16.624 107.947 16.48 108.187 16.48ZM117.613 25.096C116.805 25.096 116.101 24.924 115.501 24.58C114.901 24.228 114.441 23.728 114.121 23.08C113.801 22.424 113.641 21.652 113.641 20.764C113.641 19.884 113.801 19.12 114.121 18.472C114.441 17.816 114.901 17.316 115.501 16.972C116.101 16.62 116.805 16.444 117.613 16.444C118.141 16.444 118.641 16.528 119.113 16.696C119.585 16.856 119.997 17.092 120.349 17.404C120.501 17.524 120.577 17.684 120.577 17.884C120.577 18.028 120.537 18.152 120.457 18.256C120.377 18.352 120.281 18.4 120.169 18.4C120.033 18.4 119.901 18.348 119.773 18.244C119.389 17.956 119.037 17.756 118.717 17.644C118.405 17.524 118.049 17.464 117.649 17.464C116.769 17.464 116.093 17.748 115.621 18.316C115.149 18.884 114.913 19.7 114.913 20.764C114.913 21.836 115.149 22.656 115.621 23.224C116.093 23.792 116.769 24.076 117.649 24.076C118.033 24.076 118.381 24.016 118.693 23.896C119.013 23.776 119.373 23.576 119.773 23.296C119.933 23.192 120.065 23.14 120.169 23.14C120.281 23.14 120.377 23.192 120.457 23.296C120.537 23.392 120.577 23.512 120.577 23.656C120.577 23.856 120.501 24.016 120.349 24.136C119.997 24.448 119.585 24.688 119.113 24.856C118.641 25.016 118.141 25.096 117.613 25.096ZM125.546 25.096C124.746 25.096 124.05 24.92 123.458 24.568C122.874 24.216 122.422 23.716 122.102 23.068C121.782 22.42 121.622 21.656 121.622 20.776C121.622 19.888 121.778 19.12 122.09 18.472C122.41 17.816 122.866 17.316 123.458 16.972C124.05 16.62 124.746 16.444 125.546 16.444C126.354 16.444 127.054 16.62 127.646 16.972C128.238 17.316 128.69 17.816 129.002 18.472C129.322 19.12 129.482 19.884 129.482 20.764C129.482 21.644 129.322 22.412 129.002 23.068C128.69 23.716 128.238 24.216 127.646 24.568C127.054 24.92 126.354 25.096 125.546 25.096ZM125.546 24.088C126.394 24.088 127.054 23.8 127.526 23.224C127.998 22.648 128.234 21.828 128.234 20.764C128.234 19.7 127.998 18.884 127.526 18.316C127.062 17.74 126.402 17.452 125.546 17.452C124.706 17.452 124.05 17.74 123.578 18.316C123.114 18.884 122.882 19.7 122.882 20.764C122.882 21.828 123.114 22.648 123.578 23.224C124.05 23.8 124.706 24.088 125.546 24.088ZM137.528 16.48C137.704 16.48 137.844 16.54 137.948 16.66C138.06 16.772 138.116 16.92 138.116 17.104V24.436C138.116 24.62 138.06 24.772 137.948 24.892C137.836 25.004 137.692 25.06 137.516 25.06C137.308 25.06 137.148 24.98 137.036 24.82L132.332 18.616V24.436C132.332 24.62 132.276 24.772 132.164 24.892C132.06 25.004 131.92 25.06 131.744 25.06C131.568 25.06 131.428 25.004 131.324 24.892C131.22 24.78 131.168 24.628 131.168 24.436V17.104C131.168 16.92 131.224 16.772 131.336 16.66C131.448 16.54 131.592 16.48 131.768 16.48C131.976 16.48 132.136 16.56 132.248 16.72L136.952 22.936V17.104C136.952 16.92 137.004 16.772 137.108 16.66C137.212 16.54 137.352 16.48 137.528 16.48ZM142.726 25.06C142.542 25.06 142.39 25.004 142.27 24.892C142.158 24.772 142.102 24.62 142.102 24.436V17.572H139.702C139.318 17.572 139.126 17.4 139.126 17.056C139.126 16.888 139.174 16.76 139.27 16.672C139.374 16.584 139.518 16.54 139.702 16.54H145.75C145.934 16.54 146.074 16.584 146.17 16.672C146.274 16.76 146.326 16.888 146.326 17.056C146.326 17.4 146.134 17.572 145.75 17.572H143.35V24.436C143.35 24.62 143.294 24.772 143.182 24.892C143.07 25.004 142.918 25.06 142.726 25.06ZM153.796 24.28C153.836 24.376 153.856 24.456 153.856 24.52C153.856 24.672 153.792 24.8 153.664 24.904C153.544 25.008 153.408 25.06 153.256 25.06C153.152 25.06 153.052 25.032 152.956 24.976C152.868 24.912 152.8 24.824 152.752 24.712L151.96 22.912H147.568L146.776 24.712C146.728 24.824 146.656 24.912 146.56 24.976C146.464 25.032 146.364 25.06 146.26 25.06C146.1 25.06 145.956 25.008 145.828 24.904C145.708 24.8 145.648 24.672 145.648 24.52C145.648 24.456 145.668 24.376 145.708 24.28L149.092 16.876C149.148 16.748 149.236 16.648 149.356 16.576C149.484 16.504 149.616 16.468 149.752 16.468C149.888 16.468 150.016 16.504 150.136 16.576C150.264 16.648 150.356 16.748 150.412 16.876L153.796 24.28ZM151.528 21.928L149.764 17.956L148.012 21.928H151.528ZM156.765 25.06C156.581 25.06 156.429 25.004 156.309 24.892C156.197 24.772 156.141 24.62 156.141 24.436V17.572H153.741C153.357 17.572 153.165 17.4 153.165 17.056C153.165 16.888 153.213 16.76 153.309 16.672C153.413 16.584 153.557 16.54 153.741 16.54H159.789C159.973 16.54 160.113 16.584 160.209 16.672C160.313 16.76 160.365 16.888 160.365 17.056C160.365 17.4 160.173 17.572 159.789 17.572H157.389V24.436C157.389 24.62 157.333 24.772 157.221 24.892C157.109 25.004 156.957 25.06 156.765 25.06ZM164.511 25.096C163.711 25.096 163.015 24.92 162.423 24.568C161.839 24.216 161.387 23.716 161.067 23.068C160.747 22.42 160.587 21.656 160.587 20.776C160.587 19.888 160.743 19.12 161.055 18.472C161.375 17.816 161.831 17.316 162.423 16.972C163.015 16.62 163.711 16.444 164.511 16.444C165.319 16.444 166.019 16.62 166.611 16.972C167.203 17.316 167.655 17.816 167.967 18.472C168.287 19.12 168.447 19.884 168.447 20.764C168.447 21.644 168.287 22.412 167.967 23.068C167.655 23.716 167.203 24.216 166.611 24.568C166.019 24.92 165.319 25.096 164.511 25.096ZM164.511 24.088C165.359 24.088 166.019 23.8 166.491 23.224C166.963 22.648 167.199 21.828 167.199 20.764C167.199 19.7 166.963 18.884 166.491 18.316C166.027 17.74 165.367 17.452 164.511 17.452C163.671 17.452 163.015 17.74 162.543 18.316C162.079 18.884 161.847 19.7 161.847 20.764C161.847 21.828 162.079 22.648 162.543 23.224C163.015 23.8 163.671 24.088 164.511 24.088Z" fill="black"/>
<path fill-rule="evenodd" clip-rule="evenodd" d="M31.2337 12.6666H17.7273C16.7987 12.6666 16.0474 13.4266 16.0474 14.3555L16.0389 24.4888C16.0389 25.4177 16.7987 26.1777 17.7273 26.1777H31.2337C32.1623 26.1777 32.9221 25.4177 32.9221 24.4888V14.3555C32.9221 13.4266 32.1623 12.6666 31.2337 12.6666ZM31.2338 16.0445L24.4805 20.2667L17.7273 16.0445V14.3556L24.4805 18.5778L31.2338 14.3556V16.0445Z" fill="black"/>
<rect y="63" width="195" height="38" rx="5" fill="white"/>
<path d="M52.596 80.06C52.412 80.06 52.264 80.004 52.152 79.892C52.04 79.772 51.984 79.62 51.984 79.436V72.14C51.984 71.956 52.036 71.812 52.14 71.708C52.252 71.596 52.404 71.54 52.596 71.54H56.892C57.276 71.54 57.468 71.708 57.468 72.044C57.468 72.38 57.276 72.548 56.892 72.548H53.208V75.2H56.652C57.036 75.2 57.228 75.368 57.228 75.704C57.228 76.04 57.036 76.208 56.652 76.208H53.208V79.436C53.208 79.628 53.152 79.78 53.04 79.892C52.936 80.004 52.788 80.06 52.596 80.06ZM65.4597 79.28C65.4997 79.376 65.5197 79.456 65.5197 79.52C65.5197 79.672 65.4557 79.8 65.3277 79.904C65.2077 80.008 65.0717 80.06 64.9197 80.06C64.8157 80.06 64.7157 80.032 64.6197 79.976C64.5317 79.912 64.4637 79.824 64.4157 79.712L63.6237 77.912H59.2317L58.4397 79.712C58.3917 79.824 58.3197 79.912 58.2237 79.976C58.1277 80.032 58.0277 80.06 57.9237 80.06C57.7637 80.06 57.6197 80.008 57.4917 79.904C57.3717 79.8 57.3117 79.672 57.3117 79.52C57.3117 79.456 57.3317 79.376 57.3717 79.28L60.7557 71.876C60.8117 71.748 60.8997 71.648 61.0197 71.576C61.1477 71.504 61.2797 71.468 61.4157 71.468C61.5517 71.468 61.6797 71.504 61.7997 71.576C61.9277 71.648 62.0197 71.748 62.0757 71.876L65.4597 79.28ZM63.1917 76.928L61.4277 72.956L59.6757 76.928H63.1917ZM67.4082 80C67.2242 80 67.0762 79.948 66.9642 79.844C66.8602 79.74 66.8082 79.6 66.8082 79.424V72.104C66.8082 71.92 66.8642 71.772 66.9762 71.66C67.0882 71.54 67.2362 71.48 67.4202 71.48C67.6122 71.48 67.7642 71.536 67.8762 71.648C67.9882 71.76 68.0442 71.912 68.0442 72.104V78.968H71.6922C71.8762 78.968 72.0162 79.012 72.1122 79.1C72.2162 79.188 72.2682 79.316 72.2682 79.484C72.2682 79.652 72.2162 79.78 72.1122 79.868C72.0162 79.956 71.8762 80 71.6922 80H67.4082ZM73.9827 80C73.7907 80 73.6387 79.948 73.5267 79.844C73.4227 79.732 73.3707 79.584 73.3707 79.4V72.14C73.3707 71.956 73.4227 71.812 73.5267 71.708C73.6387 71.596 73.7907 71.54 73.9827 71.54H78.3987C78.5827 71.54 78.7227 71.584 78.8187 71.672C78.9227 71.76 78.9747 71.884 78.9747 72.044C78.9747 72.204 78.9227 72.328 78.8187 72.416C78.7227 72.496 78.5827 72.536 78.3987 72.536H74.5827V75.2H78.1587C78.3427 75.2 78.4827 75.244 78.5787 75.332C78.6827 75.42 78.7347 75.544 78.7347 75.704C78.7347 75.864 78.6827 75.988 78.5787 76.076C78.4827 76.164 78.3427 76.208 78.1587 76.208H74.5827V79.004H78.3987C78.7827 79.004 78.9747 79.168 78.9747 79.496C78.9747 79.656 78.9227 79.78 78.8187 79.868C78.7227 79.956 78.5827 80 78.3987 80H73.9827ZM87.2383 80.096C86.4303 80.096 85.7263 79.924 85.1263 79.58C84.5263 79.228 84.0663 78.728 83.7463 78.08C83.4263 77.424 83.2663 76.652 83.2663 75.764C83.2663 74.884 83.4263 74.12 83.7463 73.472C84.0663 72.816 84.5263 72.316 85.1263 71.972C85.7263 71.62 86.4303 71.444 87.2383 71.444C87.7663 71.444 88.2663 71.528 88.7383 71.696C89.2103 71.856 89.6223 72.092 89.9743 72.404C90.1263 72.524 90.2023 72.684 90.2023 72.884C90.2023 73.028 90.1623 73.152 90.0823 73.256C90.0023 73.352 89.9063 73.4 89.7943 73.4C89.6583 73.4 89.5263 73.348 89.3983 73.244C89.0143 72.956 88.6623 72.756 88.3423 72.644C88.0303 72.524 87.6743 72.464 87.2743 72.464C86.3943 72.464 85.7183 72.748 85.2463 73.316C84.7743 73.884 84.5383 74.7 84.5383 75.764C84.5383 76.836 84.7743 77.656 85.2463 78.224C85.7183 78.792 86.3943 79.076 87.2743 79.076C87.6583 79.076 88.0063 79.016 88.3183 78.896C88.6383 78.776 88.9983 78.576 89.3983 78.296C89.5583 78.192 89.6903 78.14 89.7943 78.14C89.9063 78.14 90.0023 78.192 90.0823 78.296C90.1623 78.392 90.2023 78.512 90.2023 78.656C90.2023 78.856 90.1263 79.016 89.9743 79.136C89.6223 79.448 89.2103 79.688 88.7383 79.856C88.2663 80.016 87.7663 80.096 87.2383 80.096ZM95.1708 80.096C94.3708 80.096 93.6748 79.92 93.0828 79.568C92.4988 79.216 92.0468 78.716 91.7268 78.068C91.4068 77.42 91.2468 76.656 91.2468 75.776C91.2468 74.888 91.4028 74.12 91.7148 73.472C92.0348 72.816 92.4908 72.316 93.0828 71.972C93.6748 71.62 94.3708 71.444 95.1708 71.444C95.9788 71.444 96.6788 71.62 97.2708 71.972C97.8628 72.316 98.3148 72.816 98.6268 73.472C98.9468 74.12 99.1068 74.884 99.1068 75.764C99.1068 76.644 98.9468 77.412 98.6268 78.068C98.3148 78.716 97.8628 79.216 97.2708 79.568C96.6788 79.92 95.9788 80.096 95.1708 80.096ZM95.1708 79.088C96.0188 79.088 96.6788 78.8 97.1508 78.224C97.6228 77.648 97.8588 76.828 97.8588 75.764C97.8588 74.7 97.6228 73.884 97.1508 73.316C96.6868 72.74 96.0268 72.452 95.1708 72.452C94.3308 72.452 93.6748 72.74 93.2028 73.316C92.7388 73.884 92.5068 74.7 92.5068 75.764C92.5068 76.828 92.7388 77.648 93.2028 78.224C93.6748 78.8 94.3308 79.088 95.1708 79.088ZM108.305 71.48C108.481 71.48 108.625 71.54 108.737 71.66C108.849 71.772 108.905 71.92 108.905 72.104V79.472C108.905 79.656 108.853 79.8 108.749 79.904C108.653 80.008 108.517 80.06 108.341 80.06C108.173 80.06 108.041 80.008 107.945 79.904C107.849 79.8 107.801 79.656 107.801 79.472V73.892L105.449 78.368C105.297 78.648 105.101 78.788 104.861 78.788C104.621 78.788 104.425 78.648 104.273 78.368L101.909 73.94V79.472C101.909 79.656 101.861 79.8 101.765 79.904C101.669 80.008 101.533 80.06 101.357 80.06C101.189 80.06 101.053 80.008 100.949 79.904C100.853 79.792 100.805 79.648 100.805 79.472V72.104C100.805 71.92 100.861 71.772 100.973 71.66C101.085 71.54 101.229 71.48 101.405 71.48C101.653 71.48 101.853 71.624 102.005 71.912L104.873 77.396L107.717 71.912C107.869 71.624 108.065 71.48 108.305 71.48ZM117.683 80.096C116.883 80.096 116.187 79.92 115.595 79.568C115.011 79.216 114.559 78.716 114.239 78.068C113.919 77.42 113.759 76.656 113.759 75.776C113.759 74.888 113.915 74.12 114.227 73.472C114.547 72.816 115.003 72.316 115.595 71.972C116.187 71.62 116.883 71.444 117.683 71.444C118.491 71.444 119.191 71.62 119.783 71.972C120.375 72.316 120.827 72.816 121.139 73.472C121.459 74.12 121.619 74.884 121.619 75.764C121.619 76.644 121.459 77.412 121.139 78.068C120.827 78.716 120.375 79.216 119.783 79.568C119.191 79.92 118.491 80.096 117.683 80.096ZM117.683 79.088C118.531 79.088 119.191 78.8 119.663 78.224C120.135 77.648 120.371 76.828 120.371 75.764C120.371 74.7 120.135 73.884 119.663 73.316C119.199 72.74 118.539 72.452 117.683 72.452C116.843 72.452 116.187 72.74 115.715 73.316C115.251 73.884 115.019 74.7 115.019 75.764C115.019 76.828 115.251 77.648 115.715 78.224C116.187 78.8 116.843 79.088 117.683 79.088ZM132.828 71.48C133.004 71.48 133.144 71.54 133.248 71.66C133.36 71.772 133.416 71.92 133.416 72.104V79.436C133.416 79.62 133.36 79.772 133.248 79.892C133.136 80.004 132.992 80.06 132.816 80.06C132.608 80.06 132.448 79.98 132.336 79.82L127.632 73.616V79.436C127.632 79.62 127.576 79.772 127.464 79.892C127.36 80.004 127.22 80.06 127.044 80.06C126.868 80.06 126.728 80.004 126.624 79.892C126.52 79.78 126.468 79.628 126.468 79.436V72.104C126.468 71.92 126.524 71.772 126.636 71.66C126.748 71.54 126.892 71.48 127.068 71.48C127.276 71.48 127.436 71.56 127.548 71.72L132.252 77.936V72.104C132.252 71.92 132.304 71.772 132.408 71.66C132.512 71.54 132.652 71.48 132.828 71.48ZM139.022 80.096C138.222 80.096 137.526 79.92 136.934 79.568C136.35 79.216 135.898 78.716 135.578 78.068C135.258 77.42 135.098 76.656 135.098 75.776C135.098 74.888 135.254 74.12 135.566 73.472C135.886 72.816 136.342 72.316 136.934 71.972C137.526 71.62 138.222 71.444 139.022 71.444C139.83 71.444 140.53 71.62 141.122 71.972C141.714 72.316 142.166 72.816 142.478 73.472C142.798 74.12 142.958 74.884 142.958 75.764C142.958 76.644 142.798 77.412 142.478 78.068C142.166 78.716 141.714 79.216 141.122 79.568C140.53 79.92 139.83 80.096 139.022 80.096ZM139.022 79.088C139.87 79.088 140.53 78.8 141.002 78.224C141.474 77.648 141.71 76.828 141.71 75.764C141.71 74.7 141.474 73.884 141.002 73.316C140.538 72.74 139.878 72.452 139.022 72.452C138.182 72.452 137.526 72.74 137.054 73.316C136.59 73.884 136.358 74.7 136.358 75.764C136.358 76.828 136.59 77.648 137.054 78.224C137.526 78.8 138.182 79.088 139.022 79.088ZM147.44 80.096C146.832 80.096 146.252 80.012 145.7 79.844C145.156 79.676 144.72 79.444 144.392 79.148C144.24 79.02 144.164 78.856 144.164 78.656C144.164 78.512 144.204 78.392 144.284 78.296C144.364 78.192 144.46 78.14 144.572 78.14C144.684 78.14 144.82 78.192 144.98 78.296C145.692 78.824 146.504 79.088 147.416 79.088C148.056 79.088 148.548 78.968 148.892 78.728C149.236 78.488 149.408 78.144 149.408 77.696C149.408 77.344 149.248 77.08 148.928 76.904C148.608 76.728 148.096 76.56 147.392 76.4C146.72 76.256 146.168 76.092 145.736 75.908C145.304 75.724 144.964 75.476 144.716 75.164C144.476 74.844 144.356 74.44 144.356 73.952C144.356 73.464 144.488 73.032 144.752 72.656C145.024 72.272 145.4 71.976 145.88 71.768C146.36 71.552 146.908 71.444 147.524 71.444C148.092 71.444 148.616 71.524 149.096 71.684C149.576 71.844 149.984 72.08 150.32 72.392C150.48 72.528 150.56 72.692 150.56 72.884C150.56 73.02 150.516 73.14 150.428 73.244C150.348 73.348 150.252 73.4 150.14 73.4C150.036 73.4 149.904 73.348 149.744 73.244C149.376 72.964 149.028 72.764 148.7 72.644C148.38 72.516 147.992 72.452 147.536 72.452C146.92 72.452 146.44 72.58 146.096 72.836C145.752 73.084 145.58 73.432 145.58 73.88C145.58 74.264 145.732 74.556 146.036 74.756C146.34 74.948 146.828 75.124 147.5 75.284C148.204 75.444 148.772 75.612 149.204 75.788C149.644 75.956 149.992 76.192 150.248 76.496C150.512 76.792 150.644 77.176 150.644 77.648C150.644 78.128 150.508 78.556 150.236 78.932C149.972 79.3 149.596 79.588 149.108 79.796C148.628 79.996 148.072 80.096 147.44 80.096ZM154.964 80.096C154.356 80.096 153.776 80.012 153.224 79.844C152.68 79.676 152.244 79.444 151.916 79.148C151.764 79.02 151.688 78.856 151.688 78.656C151.688 78.512 151.728 78.392 151.808 78.296C151.888 78.192 151.984 78.14 152.096 78.14C152.208 78.14 152.344 78.192 152.504 78.296C153.216 78.824 154.028 79.088 154.94 79.088C155.58 79.088 156.072 78.968 156.416 78.728C156.76 78.488 156.932 78.144 156.932 77.696C156.932 77.344 156.772 77.08 156.452 76.904C156.132 76.728 155.62 76.56 154.916 76.4C154.244 76.256 153.692 76.092 153.26 75.908C152.828 75.724 152.488 75.476 152.24 75.164C152 74.844 151.88 74.44 151.88 73.952C151.88 73.464 152.012 73.032 152.276 72.656C152.548 72.272 152.924 71.976 153.404 71.768C153.884 71.552 154.432 71.444 155.048 71.444C155.616 71.444 156.14 71.524 156.62 71.684C157.1 71.844 157.508 72.08 157.844 72.392C158.004 72.528 158.084 72.692 158.084 72.884C158.084 73.02 158.04 73.14 157.952 73.244C157.872 73.348 157.776 73.4 157.664 73.4C157.56 73.4 157.428 73.348 157.268 73.244C156.9 72.964 156.552 72.764 156.224 72.644C155.904 72.516 155.516 72.452 155.06 72.452C154.444 72.452 153.964 72.58 153.62 72.836C153.276 73.084 153.104 73.432 153.104 73.88C153.104 74.264 153.256 74.556 153.56 74.756C153.864 74.948 154.352 75.124 155.024 75.284C155.728 75.444 156.296 75.612 156.728 75.788C157.168 75.956 157.516 76.192 157.772 76.496C158.036 76.792 158.168 77.176 158.168 77.648C158.168 78.128 158.032 78.556 157.76 78.932C157.496 79.3 157.12 79.588 156.632 79.796C156.152 79.996 155.596 80.096 154.964 80.096ZM163.327 80.096C162.527 80.096 161.831 79.92 161.239 79.568C160.655 79.216 160.203 78.716 159.883 78.068C159.563 77.42 159.403 76.656 159.403 75.776C159.403 74.888 159.559 74.12 159.871 73.472C160.191 72.816 160.647 72.316 161.239 71.972C161.831 71.62 162.527 71.444 163.327 71.444C164.135 71.444 164.835 71.62 165.427 71.972C166.019 72.316 166.471 72.816 166.783 73.472C167.103 74.12 167.263 74.884 167.263 75.764C167.263 76.644 167.103 77.412 166.783 78.068C166.471 78.716 166.019 79.216 165.427 79.568C164.835 79.92 164.135 80.096 163.327 80.096ZM163.327 79.088C164.175 79.088 164.835 78.8 165.307 78.224C165.779 77.648 166.015 76.828 166.015 75.764C166.015 74.7 165.779 73.884 165.307 73.316C164.843 72.74 164.183 72.452 163.327 72.452C162.487 72.452 161.831 72.74 161.359 73.316C160.895 73.884 160.663 74.7 160.663 75.764C160.663 76.828 160.895 77.648 161.359 78.224C161.831 78.8 162.487 79.088 163.327 79.088ZM55.668 92.096C54.86 92.096 54.156 91.924 53.556 91.58C52.956 91.228 52.496 90.728 52.176 90.08C51.856 89.424 51.696 88.652 51.696 87.764C51.696 86.884 51.856 86.12 52.176 85.472C52.496 84.816 52.956 84.316 53.556 83.972C54.156 83.62 54.86 83.444 55.668 83.444C56.196 83.444 56.696 83.528 57.168 83.696C57.64 83.856 58.052 84.092 58.404 84.404C58.556 84.524 58.632 84.684 58.632 84.884C58.632 85.028 58.592 85.152 58.512 85.256C58.432 85.352 58.336 85.4 58.224 85.4C58.088 85.4 57.956 85.348 57.828 85.244C57.444 84.956 57.092 84.756 56.772 84.644C56.46 84.524 56.104 84.464 55.704 84.464C54.824 84.464 54.148 84.748 53.676 85.316C53.204 85.884 52.968 86.7 52.968 87.764C52.968 88.836 53.204 89.656 53.676 90.224C54.148 90.792 54.824 91.076 55.704 91.076C56.088 91.076 56.436 91.016 56.748 90.896C57.068 90.776 57.428 90.576 57.828 90.296C57.988 90.192 58.12 90.14 58.224 90.14C58.336 90.14 58.432 90.192 58.512 90.296C58.592 90.392 58.632 90.512 58.632 90.656C58.632 90.856 58.556 91.016 58.404 91.136C58.052 91.448 57.64 91.688 57.168 91.856C56.696 92.016 56.196 92.096 55.668 92.096ZM63.6005 92.096C62.8005 92.096 62.1045 91.92 61.5125 91.568C60.9285 91.216 60.4765 90.716 60.1565 90.068C59.8365 89.42 59.6765 88.656 59.6765 87.776C59.6765 86.888 59.8325 86.12 60.1445 85.472C60.4645 84.816 60.9205 84.316 61.5125 83.972C62.1045 83.62 62.8005 83.444 63.6005 83.444C64.4085 83.444 65.1085 83.62 65.7005 83.972C66.2925 84.316 66.7445 84.816 67.0565 85.472C67.3765 86.12 67.5365 86.884 67.5365 87.764C67.5365 88.644 67.3765 89.412 67.0565 90.068C66.7445 90.716 66.2925 91.216 65.7005 91.568C65.1085 91.92 64.4085 92.096 63.6005 92.096ZM63.6005 91.088C64.4485 91.088 65.1085 90.8 65.5805 90.224C66.0525 89.648 66.2885 88.828 66.2885 87.764C66.2885 86.7 66.0525 85.884 65.5805 85.316C65.1165 84.74 64.4565 84.452 63.6005 84.452C62.7605 84.452 62.1045 84.74 61.6325 85.316C61.1685 85.884 60.9365 86.7 60.9365 87.764C60.9365 88.828 61.1685 89.648 61.6325 90.224C62.1045 90.8 62.7605 91.088 63.6005 91.088ZM75.5823 83.48C75.7583 83.48 75.8983 83.54 76.0023 83.66C76.1143 83.772 76.1703 83.92 76.1703 84.104V91.436C76.1703 91.62 76.1143 91.772 76.0023 91.892C75.8903 92.004 75.7463 92.06 75.5703 92.06C75.3623 92.06 75.2023 91.98 75.0903 91.82L70.3863 85.616V91.436C70.3863 91.62 70.3303 91.772 70.2183 91.892C70.1143 92.004 69.9743 92.06 69.7983 92.06C69.6223 92.06 69.4823 92.004 69.3783 91.892C69.2743 91.78 69.2223 91.628 69.2223 91.436V84.104C69.2223 83.92 69.2783 83.772 69.3903 83.66C69.5023 83.54 69.6463 83.48 69.8223 83.48C70.0303 83.48 70.1903 83.56 70.3023 83.72L75.0063 89.936V84.104C75.0063 83.92 75.0583 83.772 75.1623 83.66C75.2663 83.54 75.4063 83.48 75.5823 83.48ZM80.9363 92.096C80.3283 92.096 79.7483 92.012 79.1963 91.844C78.6523 91.676 78.2163 91.444 77.8883 91.148C77.7363 91.02 77.6603 90.856 77.6603 90.656C77.6603 90.512 77.7003 90.392 77.7803 90.296C77.8603 90.192 77.9563 90.14 78.0683 90.14C78.1803 90.14 78.3163 90.192 78.4763 90.296C79.1883 90.824 80.0003 91.088 80.9123 91.088C81.5523 91.088 82.0443 90.968 82.3883 90.728C82.7323 90.488 82.9043 90.144 82.9043 89.696C82.9043 89.344 82.7443 89.08 82.4243 88.904C82.1043 88.728 81.5923 88.56 80.8883 88.4C80.2163 88.256 79.6643 88.092 79.2323 87.908C78.8003 87.724 78.4603 87.476 78.2123 87.164C77.9723 86.844 77.8523 86.44 77.8523 85.952C77.8523 85.464 77.9843 85.032 78.2483 84.656C78.5203 84.272 78.8963 83.976 79.3763 83.768C79.8563 83.552 80.4043 83.444 81.0203 83.444C81.5883 83.444 82.1123 83.524 82.5923 83.684C83.0723 83.844 83.4803 84.08 83.8163 84.392C83.9763 84.528 84.0563 84.692 84.0563 84.884C84.0563 85.02 84.0123 85.14 83.9243 85.244C83.8443 85.348 83.7483 85.4 83.6363 85.4C83.5323 85.4 83.4003 85.348 83.2403 85.244C82.8723 84.964 82.5243 84.764 82.1963 84.644C81.8763 84.516 81.4883 84.452 81.0323 84.452C80.4163 84.452 79.9363 84.58 79.5923 84.836C79.2483 85.084 79.0763 85.432 79.0763 85.88C79.0763 86.264 79.2283 86.556 79.5323 86.756C79.8363 86.948 80.3243 87.124 80.9963 87.284C81.7003 87.444 82.2683 87.612 82.7003 87.788C83.1403 87.956 83.4883 88.192 83.7443 88.496C84.0083 88.792 84.1403 89.176 84.1403 89.648C84.1403 90.128 84.0043 90.556 83.7323 90.932C83.4683 91.3 83.0923 91.588 82.6043 91.796C82.1243 91.996 81.5683 92.096 80.9363 92.096ZM89.0477 92.096C87.9197 92.096 87.0637 91.804 86.4797 91.22C85.8957 90.636 85.6037 89.776 85.6037 88.64V84.104C85.6037 83.912 85.6597 83.76 85.7717 83.648C85.8837 83.536 86.0317 83.48 86.2157 83.48C86.3997 83.48 86.5477 83.536 86.6597 83.648C86.7717 83.76 86.8277 83.912 86.8277 84.104V88.724C86.8277 89.5 87.0117 90.088 87.3797 90.488C87.7557 90.888 88.3117 91.088 89.0477 91.088C89.7757 91.088 90.3277 90.888 90.7037 90.488C91.0797 90.088 91.2677 89.5 91.2677 88.724V84.104C91.2677 83.92 91.3237 83.772 91.4357 83.66C91.5477 83.54 91.6957 83.48 91.8797 83.48C92.0637 83.48 92.2117 83.536 92.3237 83.648C92.4357 83.76 92.4917 83.912 92.4917 84.104V88.64C92.4917 89.768 92.1957 90.628 91.6037 91.22C91.0197 91.804 90.1677 92.096 89.0477 92.096ZM94.9942 92C94.8102 92 94.6622 91.948 94.5502 91.844C94.4462 91.74 94.3942 91.6 94.3942 91.424V84.104C94.3942 83.92 94.4502 83.772 94.5622 83.66C94.6742 83.54 94.8222 83.48 95.0062 83.48C95.1982 83.48 95.3502 83.536 95.4622 83.648C95.5742 83.76 95.6302 83.912 95.6302 84.104V90.968H99.2782C99.4622 90.968 99.6022 91.012 99.6982 91.1C99.8022 91.188 99.8542 91.316 99.8542 91.484C99.8542 91.652 99.8022 91.78 99.6982 91.868C99.6022 91.956 99.4622 92 99.2782 92H94.9942ZM102.097 92.06C101.913 92.06 101.761 92.004 101.641 91.892C101.529 91.772 101.473 91.62 101.473 91.436V84.572H99.0727C98.6887 84.572 98.4967 84.4 98.4967 84.056C98.4967 83.888 98.5447 83.76 98.6407 83.672C98.7447 83.584 98.8887 83.54 99.0727 83.54H105.121C105.305 83.54 105.445 83.584 105.541 83.672C105.645 83.76 105.697 83.888 105.697 84.056C105.697 84.4 105.505 84.572 105.121 84.572H102.721V91.436C102.721 91.62 102.665 91.772 102.553 91.892C102.441 92.004 102.289 92.06 102.097 92.06ZM109.843 92.096C109.043 92.096 108.347 91.92 107.755 91.568C107.171 91.216 106.719 90.716 106.399 90.068C106.079 89.42 105.919 88.656 105.919 87.776C105.919 86.888 106.075 86.12 106.387 85.472C106.707 84.816 107.163 84.316 107.755 83.972C108.347 83.62 109.043 83.444 109.843 83.444C110.651 83.444 111.351 83.62 111.943 83.972C112.535 84.316 112.987 84.816 113.299 85.472C113.619 86.12 113.779 86.884 113.779 87.764C113.779 88.644 113.619 89.412 113.299 90.068C112.987 90.716 112.535 91.216 111.943 91.568C111.351 91.92 110.651 92.096 109.843 92.096ZM109.843 91.088C110.691 91.088 111.351 90.8 111.823 90.224C112.295 89.648 112.531 88.828 112.531 87.764C112.531 86.7 112.295 85.884 111.823 85.316C111.359 84.74 110.699 84.452 109.843 84.452C109.003 84.452 108.347 84.74 107.875 85.316C107.411 85.884 107.179 86.7 107.179 87.764C107.179 88.828 107.411 89.648 107.875 90.224C108.347 90.8 109.003 91.088 109.843 91.088ZM122.064 91.232C122.136 91.336 122.172 91.448 122.172 91.568C122.172 91.712 122.112 91.836 121.992 91.94C121.88 92.036 121.748 92.084 121.596 92.084C121.372 92.084 121.192 91.984 121.056 91.784L119.448 89.288C119.264 89 119.068 88.8 118.86 88.688C118.652 88.568 118.38 88.508 118.044 88.508H116.688V91.436C116.688 91.628 116.632 91.78 116.52 91.892C116.416 92.004 116.268 92.06 116.076 92.06C115.892 92.06 115.744 92.004 115.632 91.892C115.52 91.78 115.464 91.628 115.464 91.436V84.14C115.464 83.956 115.516 83.812 115.62 83.708C115.732 83.596 115.884 83.54 116.076 83.54H119.064C120 83.54 120.712 83.748 121.2 84.164C121.696 84.58 121.944 85.188 121.944 85.988C121.944 86.652 121.756 87.192 121.38 87.608C121.004 88.016 120.468 88.276 119.772 88.388C119.98 88.444 120.168 88.544 120.336 88.688C120.504 88.832 120.668 89.032 120.828 89.288L122.064 91.232ZM118.92 87.512C119.544 87.512 120.004 87.392 120.3 87.152C120.604 86.904 120.756 86.524 120.756 86.012C120.756 85.5 120.608 85.128 120.312 84.896C120.016 84.656 119.552 84.536 118.92 84.536H116.676V87.512H118.92ZM130.55 92.096C129.75 92.096 129.054 91.92 128.462 91.568C127.878 91.216 127.426 90.716 127.106 90.068C126.786 89.42 126.626 88.656 126.626 87.776C126.626 86.888 126.782 86.12 127.094 85.472C127.414 84.816 127.87 84.316 128.462 83.972C129.054 83.62 129.75 83.444 130.55 83.444C131.358 83.444 132.058 83.62 132.65 83.972C133.242 84.316 133.694 84.816 134.006 85.472C134.326 86.12 134.486 86.884 134.486 87.764C134.486 88.644 134.326 89.412 134.006 90.068C133.694 90.716 133.242 91.216 132.65 91.568C132.058 91.92 131.358 92.096 130.55 92.096ZM130.55 91.088C131.398 91.088 132.058 90.8 132.53 90.224C133.002 89.648 133.238 88.828 133.238 87.764C133.238 86.7 133.002 85.884 132.53 85.316C132.066 84.74 131.406 84.452 130.55 84.452C129.71 84.452 129.054 84.74 128.582 85.316C128.118 85.884 127.886 86.7 127.886 87.764C127.886 88.828 128.118 89.648 128.582 90.224C129.054 90.8 129.71 91.088 130.55 91.088ZM142.532 83.48C142.708 83.48 142.848 83.54 142.952 83.66C143.064 83.772 143.12 83.92 143.12 84.104V91.436C143.12 91.62 143.064 91.772 142.952 91.892C142.84 92.004 142.696 92.06 142.52 92.06C142.312 92.06 142.152 91.98 142.04 91.82L137.336 85.616V91.436C137.336 91.62 137.28 91.772 137.168 91.892C137.064 92.004 136.924 92.06 136.748 92.06C136.572 92.06 136.432 92.004 136.328 91.892C136.224 91.78 136.172 91.628 136.172 91.436V84.104C136.172 83.92 136.228 83.772 136.34 83.66C136.452 83.54 136.596 83.48 136.771 83.48C136.98 83.48 137.14 83.56 137.252 83.72L141.956 89.936V84.104C141.956 83.92 142.008 83.772 142.112 83.66C142.216 83.54 142.356 83.48 142.532 83.48ZM145.689 92C145.505 92 145.357 91.948 145.245 91.844C145.141 91.74 145.089 91.6 145.089 91.424V84.104C145.089 83.92 145.145 83.772 145.257 83.66C145.369 83.54 145.517 83.48 145.701 83.48C145.893 83.48 146.045 83.536 146.157 83.648C146.269 83.76 146.325 83.912 146.325 84.104V90.968H149.973C150.157 90.968 150.297 91.012 150.393 91.1C150.497 91.188 150.549 91.316 150.549 91.484C150.549 91.652 150.497 91.78 150.393 91.868C150.297 91.956 150.157 92 149.973 92H145.689ZM152.264 92.06C152.08 92.06 151.932 92.004 151.82 91.892C151.708 91.78 151.652 91.628 151.652 91.436V84.104C151.652 83.92 151.708 83.772 151.82 83.66C151.932 83.54 152.08 83.48 152.264 83.48C152.456 83.48 152.608 83.536 152.72 83.648C152.832 83.76 152.888 83.912 152.888 84.104V91.436C152.888 91.628 152.832 91.78 152.72 91.892C152.616 92.004 152.464 92.06 152.264 92.06ZM161.211 83.48C161.387 83.48 161.527 83.54 161.631 83.66C161.743 83.772 161.799 83.92 161.799 84.104V91.436C161.799 91.62 161.743 91.772 161.631 91.892C161.519 92.004 161.375 92.06 161.199 92.06C160.991 92.06 160.831 91.98 160.719 91.82L156.015 85.616V91.436C156.015 91.62 155.959 91.772 155.847 91.892C155.743 92.004 155.603 92.06 155.427 92.06C155.251 92.06 155.111 92.004 155.007 91.892C154.903 91.78 154.851 91.628 154.851 91.436V84.104C154.851 83.92 154.907 83.772 155.019 83.66C155.131 83.54 155.275 83.48 155.451 83.48C155.659 83.48 155.819 83.56 155.931 83.72L160.635 89.936V84.104C160.635 83.92 160.687 83.772 160.791 83.66C160.895 83.54 161.035 83.48 161.211 83.48ZM164.381 92C164.189 92 164.037 91.948 163.925 91.844C163.821 91.732 163.769 91.584 163.769 91.4V84.14C163.769 83.956 163.821 83.812 163.925 83.708C164.037 83.596 164.189 83.54 164.381 83.54H168.797C168.981 83.54 169.121 83.584 169.217 83.672C169.321 83.76 169.373 83.884 169.373 84.044C169.373 84.204 169.321 84.328 169.217 84.416C169.121 84.496 168.981 84.536 168.797 84.536H164.981V87.2H168.557C168.741 87.2 168.881 87.244 168.977 87.332C169.081 87.42 169.133 87.544 169.133 87.704C169.133 87.864 169.081 87.988 168.977 88.076C168.881 88.164 168.741 88.208 168.557 88.208H164.981V91.004H168.797C169.181 91.004 169.373 91.168 169.373 91.496C169.373 91.656 169.321 91.78 169.217 91.868C169.121 91.956 168.981 92 168.797 92H164.381Z" fill="black"/>
<path fill-rule="evenodd" clip-rule="evenodd" d="M26.1688 73.1333C21.9734 73.1333 18.5714 76.5364 18.5714 80.7333V86.6444C18.5714 88.0462 19.7026 89.1777 21.1039 89.1777H23.6363V82.4222H20.2597V80.7333C20.2597 77.4653 22.9019 74.8222 26.1688 74.8222C29.4357 74.8222 32.0779 77.4653 32.0779 80.7333V82.4222H28.7013V89.1777H32.0779V90.0222H26.1688V91.7111H31.2337C32.635 91.7111 33.7662 90.5795 33.7662 89.1777V80.7333C33.7662 76.5364 30.3643 73.1333 26.1688 73.1333Z" fill="black"/>
</svg>
